<?xml version="1.0" encoding="UTF-8"?>
<svg id="Layer_1" data-name="Layer 1" xmlns="http://www.w3.org/2000/svg" viewBox="0 0 367 334.82">
  <defs>
    <style>
      .cls-1 {
        fill: #141413;
      }

      .cls-2 {
        fill: #121112;
      }

      .cls-3 {
        fill: #161616;
      }

      .cls-4 {
        fill: #e6e2d6;
      }
    </style>
  </defs>
  <path class="cls-4" d="M89.28,71.42s.53-26.86-6.04-26.86c-26.83,0-24.5-42.41-28.1-44.15-10.52-5.08-19.11,38.82-17.7,53.99,3.99,42.97,32,36.18,42.37,29,11.44-7.93,9.47-11.97,9.47-11.97Z"/>
  <path class="cls-3" d="M327.51,156.63c3.87-14.45,1.11-30.96-8.85-44.51-6.58-8.94-15.32-15.25-24.8-18.7-17.82-33.43-59-60.78-110.09-68.92-58.97-9.39-113.34,9.66-137.18,44.35-19.87,6.74-34.25,26.39-34.25,49.59,0,2.47,.17,4.9,.49,7.29C4.77,137.72,0,152.5,0,168.49c0,16.8,5.26,32.24,14.05,44.52,.03,.12,.06,.23,.09,.35,2.74,5.55,5.25,9.42,7.11,10.17,.1-.56,.22-1.08,.35-1.59,11.79,11.75,27.48,18.93,44.7,18.93,4.37,0,8.64-.47,12.78-1.36,15.16,5.98,30.15,8.9,38.31,5.56,0,10.62,24.57,35.18,37.91,29.12,.3,32.45,27.9,45.19,38.82,35.48,8.05,7.17,17.78,10.27,28.31,13.9,12.86-4.54,21.63-8.13,33.07-15.64,5.91-3.88,16.04-7.62,20.66-12.99,4.99-5.81,8.55-12.35,11.49-19.38,.1-.25,.21-.49,.32-.73-.19-.12-.34-.3-.42-.52,9.13-2.1,17.92-6,25.85-11.83,32.42-23.85,38.5-70.82,14.1-105.85Z"/>
  <path class="cls-4" d="M227.08,321.9c-.63,.26-1.28,.5-1.93,.73-.9,.32-1.81,.63-2.71,.94,1.61-.57,3.15-1.12,4.64-1.67Z"/>
  <g>
    <ellipse class="cls-4" cx="45.08" cy="154.52" rx="30.65" ry="18.37" transform="translate(-112.76 186.08) rotate(-85.04)"/>
    <path class="cls-2" d="M26.03,154.9c-.18-9.19,2.02-22.51,12.13-21.95,4.81,.27,8.01,7.74,8.56,17.77,.02,.33-7.19,1.47-7.19,1.47l7.4,7.9c1,5.61-2.64,17.79-8.91,17.74-8.68-.06-11.79-12.97-11.99-22.93Z"/>
  </g>
  <path class="cls-4" d="M194.13,309.67c-10.92,9.7-38.52-3.04-38.82-35.49-13.35,6.07-37.92-18.5-37.92-29.11-8.16,3.34-23.15,.42-38.31-5.56-4.14,.88-8.41,1.36-12.78,1.36-16.96,0-32.43-6.96-44.15-18.4-.99,4.13-1.5,8.33-1.5,12.59,0,29.44,22.69,54.83,57.12,71.11,.09,2.11,.8,4.44,2.3,7.03,6.67,11.55,20.21,17.36,32.32,17.39,5.18,.01,12.76-3.49,17.94-8.46,0,0,0,0,0,0,2.5,.41,21.09,6.45,36.19,6.61,24.12,.26,35.6-1.57,55.91-5.17-10.54-3.64-20.26-6.73-28.31-13.9Z"/>
  <path class="cls-3" d="M81.7,290.84c10.92-1.19,36.39,.93,38.52,15.19,2.12,14.25-13.65,13.95-13.65,13.95,0,0-9.71-.3-9.71-11.22s-13.95-15.47-19.11-15.16c0,0-.06-2.31,3.94-2.75Z"/>
  <g>
    <path class="cls-4" d="M157.88,155.83c1.01,12.49,13.03,27.87,21.32,37.05,3.32,3.57,6.85,6.94,10.37,9.58,4.67,3.51,5.61,10.15,2.1,14.82-4.03,5.52-12.6,5.6-16.77,.21-7.5-9.08-12.75-18.69-17.38-29.2-2.18-5.1-4.08-10.33-5.47-15.8-1.38-5.75-2.44-11.48-1.27-17.56,.96-4.3,7.21-3.49,7.1,.89h0Z"/>
    <path class="cls-4" d="M186.25,163.77c-11.08,7.34-20.31,20.88-23.82,33.56-1.08,4.13-1.29,8.19-.46,11.09,3.01,12.4-14.53,17.42-18.52,5.27-2.87-18.38,12.24-37.08,25.76-47.56,4.34-3.3,8.99-6.26,14.33-8.23,1.68-.62,3.55,.24,4.17,1.92,.56,1.52-.09,3.18-1.45,3.95h0Z"/>
  </g>
  <path class="cls-1" d="M82.82,306.91c-.03,.28-1.92,.43-5.24-.21-3.3-.66-8-2.17-13.31-5.02-5.34-2.78-11.26-6.87-17.2-12.13-1.48-1.32-2.96-2.72-4.44-4.18-1.45-1.45-2.92-2.96-4.38-4.54-2.92-3.16-5.8-6.62-8.43-10.42-2.64-3.79-4.87-7.75-6.65-11.76-1.76-4.02-3.05-8.08-3.86-12.04-1.64-7.93-1.31-15.32-.2-21.24,1.08-5.96,2.84-10.52,4.26-13.54,1.42-3.02,2.48-4.55,2.75-4.43,.32,.14-.17,1.91-1.04,5.06-.87,3.14-2.09,7.69-2.7,13.39-.64,5.68-.6,12.55,1.13,19.84,.86,3.64,2.14,7.37,3.83,11.08,1.72,3.7,3.83,7.4,6.32,10.98,2.48,3.59,5.2,6.91,7.97,10,1.39,1.55,2.79,3.04,4.19,4.5,1.39,1.43,2.77,2.82,4.16,4.12,5.55,5.22,11.04,9.42,15.94,12.44,4.88,3.08,9.15,4.97,12.16,6.13,3.02,1.14,4.79,1.6,4.74,1.96Z"/>
  <path class="cls-1" d="M63.35,298.89c.22-.24,1.36,.3,3.52,1.22,1.08,.47,2.41,1.06,3.94,1.85,1.52,.8,3.26,1.8,5.02,3.29,.86,.78,1.77,1.65,2.51,2.81,.63,.97,1.28,1.98,1.95,3.03,1.34,2.05,2.79,4.2,4.44,6.32,1.65,2.12,3.5,4.21,5.63,6.06,2.14,1.83,4.58,3.39,7.28,4.43,5.74,2.19,11.51,2.97,16.44,1.86,2.47-.57,4.71-1.59,6.78-2.69,2.05-1.19,3.93-2.42,5.68-3.62,1.74-1.18,3.38-2.25,4.87-3.11,1.52-.84,2.86-1.51,4.03-1.9,1.13-.47,2.1-.61,2.74-.7,.65-.08,1-.05,1.05,.11,.05,.15-.21,.42-.73,.78-.51,.37-1.31,.76-2.25,1.44-1.95,1.22-4.5,3.29-7.73,6.03-1.61,1.36-3.49,2.83-5.65,4.28-2.22,1.38-4.77,2.74-7.73,3.55-.73,.22-1.5,.32-2.27,.48-.39,.07-.77,.14-1.16,.22-.39,.02-.79,.05-1.19,.07-.8,.04-1.6,.1-2.42,.11-.8-.06-1.61-.12-2.43-.19-.41-.04-.82-.06-1.23-.11-.4-.08-.8-.16-1.21-.24-.81-.16-1.62-.33-2.44-.5-1.6-.44-3.18-.97-4.8-1.5-3.32-1.28-6.23-3.2-8.65-5.37-2.41-2.19-4.38-4.57-6.07-6.93-1.68-2.36-3.07-4.7-4.3-6.89-.59-1.09-1.16-2.14-1.71-3.15-.43-.83-1.07-1.58-1.7-2.28-1.33-1.38-2.8-2.51-4.12-3.47-1.33-.96-2.52-1.78-3.48-2.51-1.94-1.42-2.83-2.55-2.61-2.79Z"/>
  <path class="cls-1" d="M255.51,307.93c.14,.29-1.53,1.45-4.68,3.28-3.16,1.83-7.79,4.35-13.68,7.18-2.94,1.42-6.21,2.9-9.79,4.36-3.57,1.47-7.45,2.91-11.62,4.2-4.17,1.29-8.63,2.44-13.33,3.28-4.71,.85-9.65,1.35-14.7,1.5-10.11,.31-19.66-.65-28.21-1.84-8.54-1.18-16.22-2.64-22.52-3.66-3.12-.47-5.91-.58-8.29-.22-2.36,.35-4.32,1.15-5.75,2.04-2.91,1.8-3.75,3.74-4.1,3.56-.13-.06-.11-.6,.29-1.54,.4-.92,1.24-2.22,2.73-3.49,1.48-1.27,3.61-2.46,6.32-3.14,2.69-.67,5.84-.78,9.17-.5,3.33,.29,6.82,.77,10.62,1.23,3.79,.47,7.82,.97,12.07,1.45,8.48,.94,17.81,1.74,27.53,1.44,4.86-.15,9.57-.59,14.08-1.35,4.51-.74,8.82-1.76,12.88-2.9,8.14-2.28,15.3-5.06,21.3-7.46,5.99-2.41,10.83-4.48,14.22-5.8,3.39-1.33,5.33-1.94,5.47-1.65Z"/>
  <ellipse class="cls-3" cx="233.11" cy="257.16" rx="57.38" ry="51.09"/>
  <path class="cls-4" d="M272.39,109.88s-6.07-26.88,2.79-22.3c20.57,10.62,59.87-3.62,89.86-32.79,.76-.74,2.01-.4,1.96,.65-.44,10.19-2.72,38.61-14.49,58.74-19.68,33.63-46.46,46.81-48.54,47.79-.09,.04-.18,.07-.27,.08-1.79,.29-19.54,2.67-29.13-13.98-10.58-18.37-2.19-38.19-2.19-38.19Z"/>
  <path class="cls-3" d="M128.31,48.46s52.21,9.64,72.65,38.35c0,0,14.35,23.81,9.46,33.93,0,0-25.12-.98-15.01,8.16,10.11,9.13,35.88-2.28,32.62,9.46-3.26,11.74-19.9,10.11-14.03,15.33s32.95,9.46,32.95,16.31-12.07-1.3-15.33,3.91,31.97-2.94,25.12,12.4-15.14,23.57-17.29,35.23c-6.31,34.15-35.32,38.2-35.32,38.2,0,0,19.14,5.49,31.41,3.56,30.99-4.89,38.17-25.45,38.17-25.45,0,0,43.06-8.48,44.37-51.22,1.3-42.74-31.64-70.79-31.64-70.79,0,0-6.56-36.73-21.53-46.98-66.29-45.36-117.02-38.35-136.6-20.41Z"/>
  <g>
    <ellipse class="cls-4" cx="114.86" cy="95.34" rx="35.87" ry="24.21" transform="translate(-1.25 189.15) rotate(-78.63)"/>
    <path class="cls-2" d="M92.53,93.97c1.15-11.02,7.6-28.9,21.53-27.53,6.63,.65,8.8,13.65,6.67,23.96-.08,.39-11.83,1.82-11.83,1.82l9.3,8.04c-2.58,9.5-9.6,22.9-15.88,21.16-7.3-2.02-11.04-15.5-9.79-27.44Z"/>
  </g>
</svg>